<svg width="76" height="178" viewBox="0 0 76 178" fill="none" xmlns="http://www.w3.org/2000/svg">
<path fill-rule="evenodd" clip-rule="evenodd" d="M6.4903 31.5C6.4903 19.1 16.157 22.3333 20.9903 25.5C27.157 27.5 42.3903 30.3 53.9903 25.5C65.5903 20.7 68.157 23.5 67.9903 25.5V56.5C81.9903 95.3 73.8236 94.6667 67.9903 89.5V177.5H12.9903C11.9903 168.833 8.4903 151.8 2.4903 153C-3.66888 154.232 2.98571 132.534 7.50036 117.813C8.48318 114.609 9.36458 111.735 9.9903 109.5C12.2515 101.424 10.13 77.6958 8.34505 57.731C7.36718 46.7937 6.4903 36.986 6.4903 31.5ZM61.4375 79.7764C61.314 79.5294 61.0137 79.4293 60.7667 79.5528C60.5197 79.6763 60.4196 79.9766 60.5431 80.2236C62.5684 84.2742 65.1008 87.3176 66.1367 88.3536C66.332 88.5488 66.6486 88.5488 66.8438 88.3536C67.0391 88.1583 67.0391 87.8417 66.8438 87.6464C65.8798 86.6824 63.4122 83.7258 61.4375 79.7764Z" fill="white"/>
<path d="M38.222 28.0845C38.3071 27.3191 38.7542 26.7967 38.7542 25.9262C38.7542 24.0651 39.1705 22.0956 39.4342 20.2496C39.8891 17.0659 39.8186 13.9172 39.8186 10.6998C39.8186 9.08602 39.793 7.18328 39.4195 5.61453C39.117 4.34401 39.2308 2.93293 38.7542 1.74142" stroke="white" stroke-width="3" stroke-linecap="round"/>
</svg>
