<svg width="264" height="282" viewBox="0 0 264 282" fill="none" xmlns="http://www.w3.org/2000/svg">
<path fill-rule="evenodd" clip-rule="evenodd" d="M14 32C14 27.5817 17.5817 24 22 24H240C244.418 24 248 27.5817 248 32V250C248 254.418 244.418 258 240 258H22C17.5817 258 14 254.418 14 250V32ZM207 143C207 186.078 172.078 221 129 221C85.9218 221 51 186.078 51 143C51 99.9218 85.9218 65 129 65C172.078 65 207 99.9218 207 143ZM76.2738 99.4581C75.4222 98.7546 74.1616 98.8747 73.4581 99.7262C72.7546 100.578 72.8747 101.838 73.7262 102.542L119.726 140.542C120.578 141.245 121.838 141.125 122.542 140.274C123.245 139.422 123.125 138.162 122.274 137.458L76.2738 99.4581ZM135.091 145.403C135.421 144.349 136.542 143.762 137.597 144.091L169.597 154.091C170.651 154.421 171.238 155.542 170.909 156.597C170.579 157.651 169.458 158.238 168.403 157.909L136.403 147.909C135.349 147.579 134.762 146.458 135.091 145.403ZM129 148C131.761 148 134 145.761 134 143C134 140.239 131.761 138 129 138C126.239 138 124 140.239 124 143C124 145.761 126.239 148 129 148ZM126 67H131V72H126V67ZM205 141H200V146H205V141ZM53 141H58V146H53V141ZM79.0711 91.5355L75.5355 88L72 91.5355L75.5355 95.0711L79.0711 91.5355ZM182.536 88L186.071 91.5355L182.536 95.0711L179 91.5355L182.536 88ZM186.071 193.536L182.536 190L179 193.536L182.536 197.071L186.071 193.536ZM75.5355 190L79.0711 193.536L75.5355 197.071L72 193.536L75.5355 190ZM131 214H126V219H131V214ZM47.9316 228.184C49.4053 232.13 51.017 235.987 52.7541 239.259C54.3588 242.281 56.0308 244.725 57.7422 246.278C59.4426 247.82 61.0479 248.374 62.6306 247.967C65.111 247.328 66.7777 246.303 67.8736 245.15C68.9683 243.998 69.5387 242.671 69.7541 241.35C69.9709 240.02 69.8267 238.698 69.4867 237.595C69.1388 236.467 68.6221 235.68 68.1995 235.33L68.1855 235.319L68.1719 235.306C67.0528 234.309 65.1752 233.024 63.2188 232.397C61.2656 231.771 59.4677 231.858 58.1335 233.192C57.5356 233.79 57.319 234.58 57.4267 235.464C57.5366 236.365 57.9863 237.319 58.6599 238.084C59.3353 238.851 60.1657 239.351 60.9765 239.472C61.7422 239.586 62.6009 239.382 63.462 238.521C63.8525 238.13 64.4857 238.13 64.8762 238.521C65.2667 238.911 65.2667 239.544 64.8762 239.935C63.5978 241.213 62.116 241.664 60.6814 241.45C59.2918 241.243 58.0622 240.431 57.1589 239.406C56.2538 238.378 55.6062 237.058 55.4414 235.706C55.2743 234.335 55.6055 232.892 56.7193 231.778C58.8083 229.689 61.5271 229.755 63.8292 230.492C66.1203 231.227 68.2299 232.682 69.4896 233.802C70.3137 234.491 70.9875 235.675 71.3979 237.006C71.8187 238.371 71.9997 240.005 71.728 241.672C71.4549 243.347 70.723 245.055 69.3234 246.528C67.925 248 65.9054 249.189 63.1292 249.904C60.6493 250.542 58.3746 249.552 56.3984 247.759C54.4332 245.976 52.632 243.293 50.9877 240.197C47.693 233.992 44.8687 225.81 42.6021 218.923C42.5395 218.733 42.5371 218.538 42.5845 218.357C40.9211 213.953 39.024 209.523 36.9293 205.859C35.0612 202.591 33.0966 200.045 31.0887 198.643C30.0973 197.951 29.1291 197.561 28.1801 197.473C27.2413 197.386 26.2505 197.586 25.1886 198.187C20.7119 200.72 19.6119 203.544 19.7082 205.816C19.8097 208.21 21.2454 210.283 22.326 211.177L22.3401 211.189L22.3537 211.201C23.4728 212.198 25.3504 213.483 27.3068 214.11C29.26 214.736 31.0579 214.649 32.3921 213.315C32.9687 212.738 33.2187 211.848 33.1069 210.774C32.9953 209.701 32.5289 208.571 31.8537 207.703C31.1686 206.823 30.374 206.339 29.6543 206.286C28.9995 206.239 28.1215 206.532 27.1695 207.862C26.8479 208.311 26.2233 208.414 25.7742 208.092C25.3252 207.771 25.2219 207.146 25.5435 206.697C26.7665 204.989 28.2468 204.179 29.7989 204.292C31.2861 204.399 32.5472 205.338 33.432 206.475C34.3265 207.624 34.9441 209.105 35.0962 210.567C35.248 212.026 34.9413 213.594 33.8063 214.729C31.7173 216.818 28.9984 216.753 26.6964 216.015C24.4056 215.281 22.2962 213.825 21.0365 212.706C19.6126 211.52 17.8396 208.958 17.71 205.901C17.5748 202.712 19.232 199.259 24.2036 196.446C25.5846 195.665 26.9804 195.353 28.3654 195.482C29.7402 195.609 31.0332 196.165 32.2337 197.003C34.6099 198.662 36.753 201.521 38.6655 204.866C42.5035 211.579 45.6576 220.7 47.9235 227.584C47.99 227.786 47.9886 227.994 47.9316 228.184ZM61.2587 47.0283C57.9873 48.7654 54.1299 50.3771 50.1835 51.8508C49.9941 51.7939 49.7859 51.7924 49.5838 51.8589C42.6997 54.1249 33.5791 57.2789 26.8661 61.1169C23.5208 63.0295 20.662 65.1725 19.0029 67.5487C18.1647 68.7492 17.6095 70.0422 17.4816 71.417C17.3527 72.802 17.6645 74.1978 18.4459 75.5788C21.259 80.5504 24.7124 82.2076 27.901 82.0724C30.9576 81.9428 33.5201 80.1698 34.7058 78.7459C35.8251 77.4862 37.2808 75.3768 38.0149 73.086C38.7526 70.784 38.8182 68.0651 36.7292 65.9761C35.5942 64.8411 34.0262 64.5344 32.5667 64.6862C31.1051 64.8383 29.6245 65.4559 28.4751 66.3504C27.3383 67.2352 26.3995 68.4963 26.2917 69.9835C26.1792 71.5356 26.9894 73.0159 28.6971 74.2389C29.1461 74.5605 29.7708 74.4572 30.0924 74.0082C30.4139 73.5592 30.3106 72.9345 29.8616 72.6129C28.5323 71.6609 28.239 70.7829 28.2864 70.1281C28.3386 69.4084 28.8232 68.6138 29.7035 67.9287C30.5711 67.2535 31.701 66.7871 32.7737 66.6755C33.8484 66.5637 34.7383 66.8137 35.3149 67.3903C36.6492 68.7245 36.7363 70.5224 36.1103 72.4756C35.4834 74.432 34.1978 76.3096 33.2007 77.4287L33.1886 77.4423L33.177 77.4564C32.2827 78.537 30.2096 79.9727 27.8163 80.0742C25.5445 80.1705 22.7196 79.0705 20.1866 74.5938C19.5857 73.5319 19.3856 72.5411 19.4729 71.6023C19.5613 70.6533 19.9505 69.6851 20.6428 68.6937C22.0447 66.6858 24.5914 64.7212 27.8588 62.8531C31.5227 60.7584 35.9531 58.8614 40.3573 57.1979C40.5375 57.2453 40.7331 57.2429 40.9234 57.1803C47.8095 54.9137 55.9917 52.0894 62.1966 48.7947C65.2934 47.1504 67.976 45.3492 69.7588 43.384C71.5515 41.4078 72.5418 39.1331 71.9035 36.6532C71.1889 33.877 69.9995 31.8574 68.5279 30.459C67.055 29.0594 65.3469 28.3275 63.6716 28.0544C62.0052 27.7827 60.3705 27.9637 59.006 28.3845C57.6752 28.7949 56.4913 29.4687 55.8018 30.2928C54.6824 31.5525 53.2265 33.6621 52.4922 35.9532C51.7545 38.2553 51.689 40.9741 53.778 43.0631C54.8918 44.1769 56.3352 44.5081 57.7056 44.341C59.0576 44.1762 60.3779 43.5286 61.4057 42.6235C62.4314 41.7202 63.2426 40.4906 63.4499 39.101C63.6639 37.6664 63.2133 36.1846 61.9349 34.9062C61.5444 34.5157 60.9112 34.5157 60.5207 34.9062C60.1302 35.2967 60.1302 35.9299 60.5207 36.3204C61.3818 37.1815 61.586 38.0402 61.4718 38.8059C61.3509 39.6167 60.8509 40.4471 60.0839 41.1225C59.319 41.7962 58.3653 42.2458 57.4636 42.3557C56.5802 42.4634 55.7901 42.2468 55.1922 41.6489C53.858 40.3147 53.7709 38.5168 54.3968 36.5636C55.0238 34.6073 56.3094 32.7296 57.3064 31.6105L57.3186 31.5969L57.3302 31.5829C57.6799 31.1603 58.4671 30.6436 59.5953 30.2957C60.6978 29.9557 62.0199 29.8115 63.3497 30.0283C64.6707 30.2437 65.9982 30.8141 67.1502 31.9088C68.3035 33.0047 69.3282 34.6714 69.9666 37.1518C70.374 38.7345 69.8201 40.3398 68.2775 42.0402C66.7249 43.7516 64.2809 45.4236 61.2587 47.0283ZM213.851 228.184C212.377 232.13 210.765 235.987 209.028 239.259C207.424 242.281 205.752 244.725 204.04 246.278C202.34 247.82 200.735 248.374 199.152 247.967C196.671 247.328 195.005 246.303 193.909 245.15C192.814 243.998 192.244 242.671 192.028 241.35C191.812 240.02 191.956 238.698 192.296 237.595C192.644 236.467 193.16 235.68 193.583 235.33L193.597 235.319L193.611 235.306C194.73 234.309 196.607 233.024 198.564 232.397C200.517 231.771 202.315 231.858 203.649 233.192C204.247 233.79 204.463 234.58 204.356 235.464C204.246 236.365 203.796 237.319 203.123 238.084C202.447 238.851 201.617 239.351 200.806 239.472C200.04 239.586 199.182 239.382 198.32 238.521C197.93 238.13 197.297 238.13 196.906 238.521C196.516 238.911 196.516 239.544 196.906 239.935C198.185 241.213 199.666 241.664 201.101 241.45C202.491 241.243 203.72 240.431 204.624 239.406C205.529 238.378 206.176 237.058 206.341 235.706C206.508 234.335 206.177 232.892 205.063 231.778C202.974 229.689 200.255 229.755 197.953 230.492C195.662 231.227 193.552 232.682 192.293 233.802C191.469 234.491 190.795 235.675 190.385 237.006C189.964 238.371 189.783 240.005 190.054 241.672C190.328 243.347 191.059 245.055 192.459 246.528C193.857 248 195.877 249.189 198.653 249.904C201.133 250.542 203.408 249.552 205.384 247.759C207.349 245.976 209.15 243.293 210.795 240.197C214.089 233.992 216.914 225.81 219.18 218.923C219.243 218.733 219.245 218.538 219.198 218.357C220.861 213.953 222.758 209.523 224.853 205.859C226.721 202.591 228.686 200.045 230.694 198.643C231.685 197.951 232.653 197.561 233.602 197.473C234.541 197.386 235.532 197.586 236.594 198.187C241.071 200.72 242.171 203.544 242.074 205.816C241.973 208.21 240.537 210.283 239.456 211.177L239.442 211.189L239.429 211.201C238.31 212.198 236.432 213.483 234.476 214.11C232.522 214.736 230.725 214.649 229.39 213.315C228.814 212.738 228.564 211.848 228.676 210.774C228.787 209.701 229.254 208.571 229.929 207.703C230.614 206.823 231.408 206.339 232.128 206.286C232.783 206.239 233.661 206.532 234.613 207.862C234.935 208.311 235.559 208.414 236.008 208.092C236.457 207.771 236.561 207.146 236.239 206.697C235.016 204.989 233.536 204.179 231.984 204.292C230.496 204.399 229.235 205.338 228.35 206.475C227.456 207.624 226.838 209.105 226.686 210.567C226.534 212.026 226.841 213.594 227.976 214.729C230.065 216.818 232.784 216.753 235.086 216.015C237.377 215.281 239.486 213.825 240.746 212.706C242.17 211.52 243.943 208.958 244.072 205.901C244.208 202.712 242.55 199.259 237.579 196.446C236.198 195.665 234.802 195.353 233.417 195.482C232.042 195.609 230.749 196.165 229.549 197.003C227.173 198.662 225.029 201.521 223.117 204.866C219.279 211.579 216.125 220.7 213.859 227.584C213.792 227.786 213.794 227.994 213.851 228.184ZM200.524 47.0283C203.795 48.7654 207.653 50.3771 211.599 51.8508C211.788 51.7939 211.996 51.7924 212.199 51.8589C219.083 54.1249 228.203 57.2789 234.916 61.1169C238.262 63.0295 241.12 65.1725 242.779 67.5487C243.618 68.7492 244.173 70.0422 244.301 71.417C244.43 72.802 244.118 74.1978 243.337 75.5788C240.523 80.5504 237.07 82.2076 233.881 82.0724C230.825 81.9428 228.262 80.1698 227.077 78.7459C225.957 77.4862 224.502 75.3768 223.768 73.086C223.03 70.784 222.964 68.0651 225.053 65.9761C226.188 64.8411 227.756 64.5344 229.216 64.6862C230.677 64.8383 232.158 65.4559 233.307 66.3504C234.444 67.2352 235.383 68.4963 235.491 69.9835C235.603 71.5356 234.793 73.0159 233.085 74.2389C232.636 74.5605 232.012 74.4572 231.69 74.0082C231.368 73.5592 231.472 72.9345 231.921 72.6129C233.25 71.6609 233.543 70.7829 233.496 70.1281C233.444 69.4084 232.959 68.6138 232.079 67.9287C231.211 67.2535 230.081 66.7871 229.009 66.6755C227.934 66.5637 227.044 66.8137 226.467 67.3903C225.133 68.7245 225.046 70.5224 225.672 72.4756C226.299 74.432 227.585 76.3096 228.582 77.4287L228.594 77.4423L228.605 77.4564C229.5 78.537 231.573 79.9727 233.966 80.0742C236.238 80.1705 239.063 79.0705 241.596 74.5938C242.197 73.5319 242.397 72.5411 242.309 71.6023C242.221 70.6533 241.832 69.6851 241.14 68.6937C239.738 66.6858 237.191 64.7212 233.924 62.8531C230.26 60.7584 225.829 58.8614 221.425 57.1979C221.245 57.2453 221.049 57.2429 220.859 57.1803C213.973 54.9137 205.791 52.0894 199.586 48.7948C196.489 47.1504 193.806 45.3492 192.024 43.384C190.231 41.4078 189.241 39.1331 189.879 36.6532C190.594 33.877 191.783 31.8574 193.255 30.459C194.727 29.0594 196.436 28.3275 198.111 28.0544C199.777 27.7827 201.412 27.9637 202.776 28.3845C204.107 28.7949 205.291 29.4687 205.981 30.2928C207.1 31.5525 208.556 33.6621 209.29 35.9532C210.028 38.2553 210.093 40.9741 208.004 43.0631C206.891 44.1769 205.447 44.5081 204.077 44.341C202.725 44.1762 201.404 43.5286 200.377 42.6235C199.351 41.7202 198.54 40.4906 198.332 39.101C198.118 37.6664 198.569 36.1846 199.848 34.9062C200.238 34.5157 200.871 34.5157 201.262 34.9062C201.652 35.2968 201.652 35.9299 201.262 36.3204C200.401 37.1815 200.196 38.0403 200.311 38.8059C200.432 39.6167 200.932 40.4471 201.699 41.1226C202.463 41.7962 203.417 42.2458 204.319 42.3557C205.202 42.4634 205.992 42.2468 206.59 41.6489C207.924 40.3147 208.012 38.5168 207.386 36.5636C206.759 34.6073 205.473 32.7296 204.476 31.6105L204.464 31.5969L204.452 31.5829C204.103 31.1603 203.315 30.6436 202.187 30.2957C201.085 29.9557 199.763 29.8115 198.433 30.0283C197.112 30.2437 195.784 30.8141 194.632 31.9088C193.479 33.0047 192.454 34.6714 191.816 37.1518C191.408 38.7345 191.962 40.3398 193.505 42.0402C195.057 43.7516 197.501 45.4236 200.524 47.0283Z" fill="#D9D9D9"/>
<path d="M256 13V269" stroke="white" stroke-width="4" stroke-linecap="round"/>
<path d="M8 13L8 269" stroke="white" stroke-width="4" stroke-linecap="round"/>
<path d="M260 278L4 278" stroke="white" stroke-width="8" stroke-linecap="round"/>
<path d="M260 4L4 3.99999" stroke="white" stroke-width="8" stroke-linecap="round"/>
</svg>
