<svg width="228" height="323" viewBox="0 0 228 323" fill="none" xmlns="http://www.w3.org/2000/svg">
<path d="M9.82758 57L218.172 57" stroke="white" stroke-width="4" stroke-linecap="round"/>
<path d="M218.085 49.7354H9.63219C4.31248 49.7354 0 45.4229 0 40.1032C0 36.9079 1.60374 33.8895 4.29104 32.1608C91.4454 -23.9029 185.57 4.81221 224.136 32.1187C226.622 33.8793 228 36.7737 228 39.8203C228 45.2962 223.561 49.7354 218.085 49.7354Z" fill="white"/>
<mask id="path-3-inside-1_4_36" fill="white">
<path d="M0 71.8621C0 67.9961 3.13401 64.8621 7 64.8621H221C224.866 64.8621 228 67.9961 228 71.8621V315.345C228 319.211 224.866 322.345 221 322.345H7C3.13401 322.345 0 319.211 0 315.345V71.8621Z"/>
</mask>
<path d="M0 64.8621H228H0ZM232 315.345C232 321.42 227.075 326.345 221 326.345H7C0.924868 326.345 -4 321.42 -4 315.345H4C4 317.002 5.34315 318.345 7 318.345H221C222.657 318.345 224 317.002 224 315.345H232ZM7 326.345C0.924868 326.345 -4 321.42 -4 315.345V75.8621C-4 69.7869 0.924868 64.8621 7 64.8621C5.34315 64.8621 4 67.9961 4 71.8621V315.345C4 317.002 5.34315 318.345 7 318.345V326.345ZM221 64.8621C227.075 64.8621 232 69.7869 232 75.8621V315.345C232 321.42 227.075 326.345 221 326.345V318.345C222.657 318.345 224 317.002 224 315.345V71.8621C224 67.9961 222.657 64.8621 221 64.8621Z" fill="white" mask="url(#path-3-inside-1_4_36)"/>
<path d="M33.4138 82.5517C29.8759 85.1572 27.5172 84.4624 27.5172 95.579C27.5172 106.696 27.5172 116.423 27.5172 119.897" stroke="white" stroke-width="2" stroke-linecap="round"/>
<path d="M27.5173 129.724V141.517" stroke="white" stroke-width="2" stroke-linecap="round"/>
</svg>
