<svg width="95" height="147" viewBox="0 0 95 147" fill="none" xmlns="http://www.w3.org/2000/svg">
<path fill-rule="evenodd" clip-rule="evenodd" d="M2.08068 43.7552L2.08054 43.1041C2.07545 27.254 2.07027 11.1484 29.2272 2.84423C61.7267 -7.09364 96.6451 10.4911 94.2259 32.6672C93.9054 35.6053 93.7823 38.1124 93.6726 40.3461C93.3832 46.2422 93.1872 50.2343 89.7 55.2255L88.0938 61.7117L88.0213 62.0505L88.0212 62.0511C87.2929 65.4547 86.5488 68.9325 86.1967 69.3723C83.2675 73.0313 80.5599 71.8771 77.6159 70.6221C75.6556 69.7864 73.5905 68.9061 71.2853 69.3723C50.5603 73.5639 56.2619 84.3056 61.0044 93.2405L61.0051 93.2418C61.2495 93.7021 61.4912 94.1576 61.7267 94.6071C65.9324 102.636 72.8912 121.371 59.4326 121.371C49.3007 121.371 50.09 116.171 51.0993 109.521C51.4306 107.338 51.7857 104.999 51.7857 102.636C51.7857 90.4013 51.021 82.7544 44.9035 82.7544C38.7859 82.7544 41.0799 114.489 44.9035 129.783C45.0778 130.48 45.3093 131.257 45.5556 132.083L45.5556 132.083C47.3344 138.051 49.8843 146.606 37.2566 146.606C24.174 146.606 25.4571 132.674 26.033 126.421C26.09 125.803 26.14 125.26 26.1686 124.812C26.6182 117.767 29.3714 108.725 31.9262 100.333C35.8883 87.3194 39.3735 75.8722 33.0508 75.8722C30.3546 75.8722 29.2428 81.0215 27.3878 89.6131C26.086 95.6419 24.4184 103.366 21.5804 112.195C18.9996 120.224 16.8393 124.812 5.52191 124.812C-5.79551 124.812 2.46293 111.645 10.8746 104.548C22.2801 94.9247 19.8565 78.4698 18.7389 70.8814C18.6576 70.3295 18.5832 69.8244 18.5216 69.3723C18.0206 65.6985 14.9854 62.827 11.6534 59.6747C7.3564 55.6095 2.56583 51.0772 2.08068 43.7552ZM17.7567 30.601C18.9344 29.8213 20.1588 28.9273 21.4144 28.0104C26.4261 24.3506 31.9362 20.3269 36.9707 21.7604C43.2666 23.5531 42.1366 28.7489 40.344 35.0447C38.5513 41.3405 29.9488 47.9865 23.653 46.1939C17.3571 44.4012 11.8781 34.4927 17.7567 30.601ZM79.4797 49.5853C79.4593 44.7255 79.4377 39.6026 82.0019 36.8501C90.4228 27.8109 72.1497 28.3895 66.228 31.1794C60.3062 33.9694 59.8426 40.0539 62.6326 45.9757C62.7871 46.3037 62.9489 46.6501 63.1175 47.0114C65.9937 53.1709 70.8838 63.6436 76.4775 61.0082C79.5218 59.5739 79.5014 54.7268 79.4797 49.5853Z" fill="white"/>
</svg>
