<svg width="42" height="149" viewBox="0 0 42 149" fill="none" xmlns="http://www.w3.org/2000/svg">
<path fill-rule="evenodd" clip-rule="evenodd" d="M21 0C7 0 3.5 29.7701 3.5 44.6552H38.5C38.5 29.7701 35 0 21 0ZM21 2.55173C16 2.55173 14.75 29.7701 14.75 43.3793H27.25C27.25 29.7701 26 2.55173 21 2.55173Z" fill="white"/>
<path fill-rule="evenodd" clip-rule="evenodd" d="M2.75 48.4827H39.25C39.5261 48.4827 39.75 48.7066 39.75 48.9827V116.879C39.75 117.155 39.5261 117.379 39.25 117.379H2.75C2.47386 117.379 2.25 117.155 2.25 116.879V48.9827C2.25 48.7066 2.47386 48.4827 2.75 48.4827ZM13.5002 51.0345H28.5002V61.2414H13.5002V51.0345ZM28.5002 66.3448H13.5002V114.828H28.5002V66.3448Z" fill="white"/>
<path d="M5.759 124.953L3.88287 122.901C3.73618 122.741 3.84998 122.483 4.06736 122.483H37.9326C38.15 122.483 38.2638 122.741 38.1171 122.901L36.241 124.953C36.1936 125.005 36.1267 125.034 36.0565 125.034H5.94349C5.87331 125.034 5.80636 125.005 5.759 124.953Z" fill="white" stroke="white" stroke-linecap="round"/>
<path d="M38.4058 145.518L40.55 147.569C40.7128 147.725 40.6025 148 40.3771 148L1.62286 148C1.39747 148 1.28718 147.725 1.45002 147.569L3.59417 145.518C3.64069 145.473 3.70261 145.448 3.76701 145.448L38.233 145.448C38.2974 145.448 38.3593 145.473 38.4058 145.518Z" fill="white" stroke="white" stroke-linecap="round"/>
<path d="M6 132.44V130.388C6 130.25 6.11193 130.138 6.25 130.138H35.75C35.8881 130.138 36 130.25 36 130.388V132.44C36 132.578 35.8881 132.69 35.75 132.69H6.25C6.11193 132.69 6 132.578 6 132.44Z" fill="white" stroke="white" stroke-linecap="round"/>
<path d="M5.92648 137.868L3.91634 139.92C3.76134 140.078 3.87343 140.345 4.09492 140.345H37.9051C38.1266 140.345 38.2387 140.078 38.0837 139.92L36.0735 137.868C36.0265 137.82 35.9621 137.793 35.8949 137.793H6.10506C6.03786 137.793 5.9735 137.82 5.92648 137.868Z" fill="white" stroke="white" stroke-linecap="round"/>
</svg>
