<svg width="95" height="85" viewBox="0 0 95 85" fill="none" xmlns="http://www.w3.org/2000/svg">
<path d="M35.4343 9H34.3511C33.7988 9 33.3511 8.55278 33.3511 8.00049V4C33.3511 1.71064 35.2214 0.452528 36.2859 0.0520697C36.384 0.0151846 36.4839 0 36.5886 0H58.531C61.4087 0 61.7855 2.66667 61.6142 4V8C61.6142 8.55229 61.1665 9 60.6142 9H59.531C58.9787 9 58.531 8.55229 58.531 8V5C58.531 4.44772 58.0832 4 57.531 4H37.4343C36.882 4 36.4343 4.44772 36.4343 5V8C36.4343 8.55229 35.9866 9 35.4343 9Z" fill="#D9D9D9"/>
<path fill-rule="evenodd" clip-rule="evenodd" d="M0 21C0 19.3431 1.34315 18 3 18H92C93.6569 18 95 19.3431 95 21V77C95 78.6569 93.6569 80 92 80H3C1.34315 80 0 78.6569 0 77V21ZM7.07447 21C7.07447 20.4477 7.52218 20 8.07447 20H11.1277C11.6799 20 12.1277 20.4477 12.1277 21V77C12.1277 77.5523 11.6799 78 11.1277 78H8.07447C7.52218 78 7.07447 77.5523 7.07447 77V21ZM15.1489 20C14.5967 20 14.1489 20.4477 14.1489 21V77C14.1489 77.5523 14.5967 78 15.1489 78H18.2021C18.7544 78 19.2021 77.5523 19.2021 77V21C19.2021 20.4477 18.7544 20 18.2021 20H15.1489ZM74.7872 21C74.7872 20.4477 75.2349 20 75.7872 20H78.8404C79.3927 20 79.8404 20.4477 79.8404 21V77C79.8404 77.5523 79.3927 78 78.8404 78H75.7872C75.2349 78 74.7872 77.5523 74.7872 77V21ZM83.8723 20C83.3201 20 82.8723 20.4477 82.8723 21V77C82.8723 77.5523 83.3201 78 83.8723 78H86.9255C87.4778 78 87.9255 77.5523 87.9255 77V21C87.9255 20.4477 87.4778 20 86.9255 20H83.8723Z" fill="#D9D9D9"/>
<path d="M14.1489 16C14.1489 15.4477 14.5966 15 15.1489 15H28.3085C28.8608 15 29.3085 15.4477 29.3085 16V17H14.1489V16Z" fill="#D9D9D9"/>
<path d="M9.0957 82C9.0957 83.6569 10.4388 85 12.0957 85H13.1702C14.827 85 16.1702 83.6569 16.1702 82V81H9.0957V82Z" fill="#D9D9D9"/>
<path d="M38.4043 17C38.4043 15.8954 37.5089 15 36.4043 15L33.3298 15C32.2253 15 31.3298 15.8954 31.3298 17V17L38.4043 17V17Z" fill="#D9D9D9"/>
<path d="M63.6702 17C63.6702 15.8954 62.7747 15 61.6702 15L58.5957 15C57.4911 15 56.5957 15.8954 56.5957 17V17L63.6702 17V17Z" fill="#D9D9D9"/>
<path d="M78.8298 82C78.8298 83.6569 80.173 85 81.8298 85H82.9043C84.5612 85 85.9043 83.6569 85.9043 82V81H78.8298V82Z" fill="#D9D9D9"/>
<path d="M65.6915 16C65.6915 15.4477 66.1392 15 66.6915 15H79.8511C80.4034 15 80.8511 15.4477 80.8511 16V17H65.6915V16Z" fill="#D9D9D9"/>
<rect x="33.3511" y="10" width="3.03191" height="6" rx="1" fill="#D9D9D9"/>
<rect x="58.6171" y="10" width="3.03191" height="6" rx="1" fill="#D9D9D9"/>
</svg>
