<svg width="51" height="166" viewBox="0 0 51 166" fill="none" xmlns="http://www.w3.org/2000/svg">
<path fill-rule="evenodd" clip-rule="evenodd" d="M24 1C24 0.447715 24.4477 0 25 0C25.5523 0 26 0.447715 26 1V11.9491C25.5259 11.8339 24.8025 11.6897 24.0833 12.04C24.0559 12.0533 24.0293 12.0674 24.0033 12.082C24.0011 12.055 24 12.0276 24 12V1ZM25.0278 135.501C22.8241 134.168 16.3389 132.202 8.02778 135.001L8.5 132.502C6.76852 132.168 2.64444 131.902 0 133.501C5.50926 120.172 17.7111 77.6799 23 14.5L23.0054 14.4345C23.065 13.7131 23.1604 12.5582 24.0033 12.082C24.045 12.5959 24.4753 13 25 13C25.5523 13 26 12.5523 26 12V11.9491C26.0337 11.9573 26.0661 11.9653 26.0972 11.973C26.2484 12.0105 26.3676 12.04 26.4444 12.04C26.5398 12.04 27 12.5965 27 14.5C27 17.536 33.5278 92.5144 51 135.501C50.213 134.001 47.2222 131.302 41.5556 132.502L42.5 135.501C39.5093 134.168 31.8278 132.302 25.0278 135.501ZM25.0278 135.501L26.5 136.5V159.493C26.5 164.5 36 163.5 36 159.493V148.5C36 146.5 39 146.5 39 148.5V159.493C39 167.5 23.3611 168.5 23.5 159.493V136.5L25.0278 135.501ZM23.9989 21.0333C24.0173 20.7577 23.8088 20.5195 23.5333 20.5011C23.2577 20.4827 23.0195 20.6912 23.0011 20.9667C22.0849 34.7102 20.1356 58.1259 17.5161 79.7022C16.2063 90.491 14.7298 100.813 13.1322 109.233C12.3334 113.444 11.5055 117.172 10.6547 120.243C9.80162 123.322 8.93369 125.709 8.06421 127.255C7.92883 127.496 8.01419 127.8 8.25487 127.936C8.49555 128.071 8.80041 127.986 8.93579 127.745C9.86631 126.091 10.7598 123.609 11.6184 120.51C12.4792 117.403 13.313 113.645 14.1147 109.42C15.7182 100.968 17.1978 90.6215 18.5089 79.8228C21.131 58.2242 23.0818 34.7898 23.9989 21.0333ZM26.4667 20.5011C26.1912 20.5195 25.9827 20.7577 26.0011 21.0333C26.9182 34.7898 28.869 58.2242 31.4911 79.8228C32.8022 90.6215 34.2818 100.968 35.8853 109.42C36.687 113.645 37.5208 117.403 38.3816 120.51C39.2402 123.609 40.1337 126.091 41.0642 127.745C41.1996 127.986 41.5045 128.071 41.7451 127.936C41.9858 127.8 42.0712 127.496 41.9358 127.255C41.0663 125.709 40.1984 123.322 39.3453 120.243C38.4945 117.172 37.6666 113.444 36.8678 109.233C35.2702 100.813 33.7937 90.491 32.4839 79.7022C29.8644 58.1259 27.9151 34.7102 26.9989 20.9667C26.9805 20.6912 26.7423 20.4827 26.4667 20.5011ZM25.5 21C25.5 20.7239 25.2761 20.5 25 20.5C24.7239 20.5 24.5 20.7239 24.5 21V128C24.5 128.276 24.7239 128.5 25 128.5C25.2761 128.5 25.5 128.276 25.5 128V21Z" fill="white"/>
</svg>
