<svg width="170" height="129" viewBox="0 0 170 129" fill="none" xmlns="http://www.w3.org/2000/svg">
<rect x="0.547607" y="98.7026" width="49.3695" height="20.4703" fill="#D9D9D9"/>
<rect x="119.757" y="98.7026" width="49.3695" height="20.4703" fill="#D9D9D9"/>
<rect x="53.5295" y="98.7026" width="62.6149" height="8.42894" fill="#D9D9D9"/>
<rect x="53.5295" y="109.54" width="62.6149" height="8.42894" fill="#D9D9D9"/>
<rect x="53.5295" y="120.377" width="62.6149" height="8.42894" fill="#D9D9D9"/>
<rect x="35.4675" y="93.886" width="98.739" height="2.40827" fill="#D9D9D9"/>
<rect x="35.4675" y="33.6794" width="98.739" height="2.40827" fill="#D9D9D9"/>
<rect x="125.777" y="91.4777" width="2.40827" height="4.81653" fill="#D9D9D9"/>
<path d="M121.554 90.6597L127.251 86.2175L128.374 87.6577C129.601 89.2311 129.32 91.501 127.747 92.7277V92.7277C126.173 93.9543 123.903 93.6733 122.677 92.0999L121.554 90.6597Z" fill="#D9D9D9"/>
<rect width="2.40827" height="4.81653" transform="matrix(-1 0 0 1 43.8979 91.4777)" fill="#D9D9D9"/>
<path d="M48.1216 90.6597L42.4238 86.2175L41.301 87.6577C40.0743 89.2311 40.3554 91.501 41.9288 92.7277V92.7277C43.5022 93.9543 45.7721 93.6733 46.9988 92.0999L48.1216 90.6597Z" fill="#D9D9D9"/>
<rect x="47.5104" y="39.7" width="2.40827" height="4.81653" transform="rotate(180 47.5104 39.7)" fill="#D9D9D9"/>
<path d="M51.734 40.5181L46.0362 44.9603L44.9134 43.5201C43.6867 41.9467 43.9678 39.6768 45.5412 38.4501V38.4501C47.1146 37.2234 49.3845 37.5045 50.6112 39.0779L51.734 40.5181Z" fill="#D9D9D9"/>
<rect width="2.40827" height="4.81653" transform="matrix(1 0 0 -1 121.572 39.7)" fill="#D9D9D9"/>
<path d="M117.349 40.5181L123.046 44.9603L124.169 43.5201C125.396 41.9467 125.115 39.6768 123.541 38.4501V38.4501C121.968 37.2234 119.698 37.5045 118.471 39.0779L117.349 40.5181Z" fill="#D9D9D9"/>
<path d="M153.677 30.6691H15.9972C15.4449 30.6691 14.9972 30.2214 14.9972 29.6691V22.1685C14.9972 21.8368 15.1668 21.5229 15.4421 21.338C71.0042 -15.9755 131.781 3.9996 154.303 21.3479C154.547 21.5354 154.677 21.8176 154.677 22.1249V29.6691C154.677 30.2214 154.229 30.6691 153.677 30.6691Z" fill="#D9D9D9"/>
<line x1="19.6096" y1="30.067" x2="19.6096" y2="96.2943" stroke="white" stroke-width="2"/>
<line x1="31.651" y1="30.067" x2="31.651" y2="96.2943" stroke="white" stroke-width="2"/>
<path d="M21.0179 32.4752L30.651 43.3124" stroke="white" stroke-width="2" stroke-linecap="square"/>
<path d="M31.4177 32.4752L21.0179 44.175" stroke="white" stroke-width="2" stroke-linecap="square"/>
<path d="M21.0179 49.3331L30.651 60.1703" stroke="white" stroke-width="2" stroke-linecap="square"/>
<path d="M31.4177 49.3331L21.0179 61.0328" stroke="white" stroke-width="2" stroke-linecap="square"/>
<path d="M21.0179 66.191L30.651 77.0282" stroke="white" stroke-width="2" stroke-linecap="square"/>
<path d="M31.4177 66.191L21.0179 77.8907" stroke="white" stroke-width="2" stroke-linecap="square"/>
<path d="M21.0179 81.8447L30.651 92.6819" stroke="white" stroke-width="2" stroke-linecap="square"/>
<path d="M31.4177 81.8447L21.0179 93.5444" stroke="white" stroke-width="2" stroke-linecap="square"/>
<line x1="19.8138" y1="47.129" x2="31.8552" y2="47.129" stroke="white" stroke-width="2"/>
<line x1="19.8138" y1="63.9868" x2="31.8552" y2="63.9868" stroke="white" stroke-width="2"/>
<line x1="19.8138" y1="79.6406" x2="31.8552" y2="79.6406" stroke="white" stroke-width="2"/>
<line x1="19.8138" y1="95.2943" x2="31.8552" y2="95.2943" stroke="white" stroke-width="2"/>
<line x1="137.615" y1="30.067" x2="137.615" y2="96.2943" stroke="white" stroke-width="2"/>
<line x1="149.656" y1="30.067" x2="149.656" y2="96.2943" stroke="white" stroke-width="2"/>
<path d="M139.023 32.4752L148.656 43.3124" stroke="white" stroke-width="2" stroke-linecap="square"/>
<path d="M149.423 32.4752L139.023 44.175" stroke="white" stroke-width="2" stroke-linecap="square"/>
<path d="M139.023 49.3331L148.656 60.1703" stroke="white" stroke-width="2" stroke-linecap="square"/>
<path d="M149.423 49.3331L139.023 61.0328" stroke="white" stroke-width="2" stroke-linecap="square"/>
<path d="M139.023 66.191L148.656 77.0282" stroke="white" stroke-width="2" stroke-linecap="square"/>
<path d="M149.423 66.191L139.023 77.8907" stroke="white" stroke-width="2" stroke-linecap="square"/>
<path d="M139.023 81.8447L148.656 92.6819" stroke="white" stroke-width="2" stroke-linecap="square"/>
<path d="M149.423 81.8447L139.023 93.5444" stroke="white" stroke-width="2" stroke-linecap="square"/>
<line x1="137.819" y1="47.129" x2="149.86" y2="47.129" stroke="white" stroke-width="2"/>
<line x1="137.819" y1="63.9868" x2="149.86" y2="63.9868" stroke="white" stroke-width="2"/>
<line x1="137.819" y1="79.6406" x2="149.86" y2="79.6406" stroke="white" stroke-width="2"/>
<line x1="137.819" y1="95.2943" x2="149.86" y2="95.2943" stroke="white" stroke-width="2"/>
<path fill-rule="evenodd" clip-rule="evenodd" d="M0.547607 34.6794C0.547607 34.1271 0.995323 33.6794 1.54761 33.6794H16.4055C16.9578 33.6794 17.4055 34.1271 17.4055 34.6794V42.3124C17.4055 42.8647 16.9578 43.3125 16.4055 43.3125H1.54761C0.995324 43.3125 0.547607 42.8647 0.547607 42.3125V34.6794ZM7.77235 38.4959C7.77235 39.8259 6.69413 40.9042 5.36408 40.9042C4.03403 40.9042 2.95581 39.8259 2.95581 38.4959C2.95581 37.1658 4.03403 36.0876 5.36408 36.0876C6.69413 36.0876 7.77235 37.1658 7.77235 38.4959ZM12.5889 40.9042C13.9189 40.9042 14.9972 39.8259 14.9972 38.4959C14.9972 37.1658 13.9189 36.0876 12.5889 36.0876C11.2588 36.0876 10.1806 37.1658 10.1806 38.4959C10.1806 39.8259 11.2588 40.9042 12.5889 40.9042Z" fill="white"/>
<path fill-rule="evenodd" clip-rule="evenodd" d="M0.547607 45.5165C0.547607 44.9643 0.995323 44.5165 1.54761 44.5165H16.4055C16.9578 44.5165 17.4055 44.9643 17.4055 45.5165V53.1496C17.4055 53.7019 16.9578 54.1496 16.4055 54.1496H1.54761C0.995324 54.1496 0.547607 53.7019 0.547607 53.1496V45.5165ZM7.77235 49.3331C7.77235 50.6631 6.69413 51.7414 5.36408 51.7414C4.03403 51.7414 2.95581 50.6631 2.95581 49.3331C2.95581 48.003 4.03403 46.9248 5.36408 46.9248C6.69413 46.9248 7.77235 48.003 7.77235 49.3331ZM12.5889 51.7414C13.9189 51.7414 14.9972 50.6631 14.9972 49.3331C14.9972 48.003 13.9189 46.9248 12.5889 46.9248C11.2588 46.9248 10.1806 48.003 10.1806 49.3331C10.1806 50.6631 11.2588 51.7414 12.5889 51.7414Z" fill="white"/>
<path fill-rule="evenodd" clip-rule="evenodd" d="M0.547607 56.3538C0.547607 55.8015 0.995323 55.3538 1.54761 55.3538H16.4055C16.9578 55.3538 17.4055 55.8015 17.4055 56.3538V63.9868C17.4055 64.5391 16.9578 64.9868 16.4055 64.9868H1.54761C0.995324 64.9868 0.547607 64.5391 0.547607 63.9868V56.3538ZM7.77235 60.1703C7.77235 61.5003 6.69413 62.5786 5.36408 62.5786C4.03403 62.5786 2.95581 61.5003 2.95581 60.1703C2.95581 58.8402 4.03403 57.762 5.36408 57.762C6.69413 57.762 7.77235 58.8402 7.77235 60.1703ZM12.5889 62.5786C13.9189 62.5786 14.9972 61.5003 14.9972 60.1703C14.9972 58.8402 13.9189 57.762 12.5889 57.762C11.2588 57.762 10.1806 58.8402 10.1806 60.1703C10.1806 61.5003 11.2588 62.5786 12.5889 62.5786Z" fill="white"/>
<path fill-rule="evenodd" clip-rule="evenodd" d="M0.547607 67.191C0.547607 66.6387 0.995323 66.191 1.54761 66.191H16.4055C16.9578 66.191 17.4055 66.6387 17.4055 67.191V74.824C17.4055 75.3763 16.9578 75.824 16.4055 75.824H1.54761C0.995324 75.824 0.547607 75.3763 0.547607 74.824V67.191ZM7.77235 71.0075C7.77235 72.3375 6.69413 73.4158 5.36408 73.4158C4.03403 73.4158 2.95581 72.3375 2.95581 71.0075C2.95581 69.6774 4.03403 68.5992 5.36408 68.5992C6.69413 68.5992 7.77235 69.6774 7.77235 71.0075ZM12.5889 73.4158C13.9189 73.4158 14.9972 72.3375 14.9972 71.0075C14.9972 69.6774 13.9189 68.5992 12.5889 68.5992C11.2588 68.5992 10.1806 69.6774 10.1806 71.0075C10.1806 72.3375 11.2588 73.4158 12.5889 73.4158Z" fill="white"/>
<path fill-rule="evenodd" clip-rule="evenodd" d="M152.268 34.6794C152.268 34.1271 152.716 33.6794 153.268 33.6794H168.126C168.679 33.6794 169.126 34.1271 169.126 34.6794V42.3124C169.126 42.8647 168.679 43.3125 168.126 43.3125H153.268C152.716 43.3125 152.268 42.8647 152.268 42.3125V34.6794ZM159.493 38.4959C159.493 39.8259 158.415 40.9042 157.085 40.9042C155.755 40.9042 154.677 39.8259 154.677 38.4959C154.677 37.1658 155.755 36.0876 157.085 36.0876C158.415 36.0876 159.493 37.1658 159.493 38.4959ZM164.31 40.9042C165.64 40.9042 166.718 39.8259 166.718 38.4959C166.718 37.1658 165.64 36.0876 164.31 36.0876C162.98 36.0876 161.902 37.1658 161.902 38.4959C161.902 39.8259 162.98 40.9042 164.31 40.9042Z" fill="white"/>
<path fill-rule="evenodd" clip-rule="evenodd" d="M152.269 45.5165C152.269 44.9643 152.716 44.5165 153.269 44.5165H168.126C168.679 44.5165 169.126 44.9643 169.126 45.5165V53.1496C169.126 53.7019 168.679 54.1496 168.126 54.1496H153.269C152.716 54.1496 152.269 53.7019 152.269 53.1496V45.5165ZM159.493 49.3331C159.493 50.6631 158.415 51.7414 157.085 51.7414C155.755 51.7414 154.677 50.6631 154.677 49.3331C154.677 48.003 155.755 46.9248 157.085 46.9248C158.415 46.9248 159.493 48.003 159.493 49.3331ZM164.31 51.7414C165.64 51.7414 166.718 50.6631 166.718 49.3331C166.718 48.003 165.64 46.9248 164.31 46.9248C162.98 46.9248 161.902 48.003 161.902 49.3331C161.902 50.6631 162.98 51.7414 164.31 51.7414Z" fill="white"/>
<path fill-rule="evenodd" clip-rule="evenodd" d="M152.269 56.3538C152.269 55.8015 152.716 55.3538 153.269 55.3538H168.126C168.679 55.3538 169.126 55.8015 169.126 56.3538V63.9868C169.126 64.5391 168.679 64.9868 168.126 64.9868H153.269C152.716 64.9868 152.269 64.5391 152.269 63.9868V56.3538ZM159.493 60.1703C159.493 61.5003 158.415 62.5786 157.085 62.5786C155.755 62.5786 154.677 61.5003 154.677 60.1703C154.677 58.8402 155.755 57.762 157.085 57.762C158.415 57.762 159.493 58.8402 159.493 60.1703ZM164.31 62.5786C165.64 62.5786 166.718 61.5003 166.718 60.1703C166.718 58.8402 165.64 57.762 164.31 57.762C162.98 57.762 161.902 58.8402 161.902 60.1703C161.902 61.5003 162.98 62.5786 164.31 62.5786Z" fill="white"/>
<path fill-rule="evenodd" clip-rule="evenodd" d="M152.269 67.191C152.269 66.6387 152.716 66.191 153.269 66.191H168.126C168.679 66.191 169.126 66.6387 169.126 67.191V74.824C169.126 75.3763 168.679 75.824 168.126 75.824H153.269C152.716 75.824 152.269 75.3763 152.269 74.824V67.191ZM159.493 71.0075C159.493 72.3375 158.415 73.4158 157.085 73.4158C155.755 73.4158 154.677 72.3375 154.677 71.0075C154.677 69.6774 155.755 68.5992 157.085 68.5992C158.415 68.5992 159.493 69.6774 159.493 71.0075ZM164.31 73.4158C165.64 73.4158 166.718 72.3375 166.718 71.0075C166.718 69.6774 165.64 68.5992 164.31 68.5992C162.98 68.5992 161.902 69.6774 161.902 71.0075C161.902 72.3375 162.98 73.4158 164.31 73.4158Z" fill="white"/>
</svg>
