<svg width="293" height="86" viewBox="0 0 293 86" fill="none" xmlns="http://www.w3.org/2000/svg">
<path d="M292.5 85.0896H0C5.2 70.6896 14.5 67.7563 18.5 68.0896C25.3 44.4896 42.3333 40.5896 50 41.5896C48.1667 34.7563 49.3 18.2896 68.5 7.08961C87.7 -4.11039 105.5 5.75627 112 12.0896C122.5 0.5896 133 -2.5 143.5 2.5896C154.322 7.83541 158.833 19.5896 159 27.5896C178.2 25.1896 184.667 39.5896 185.5 47.0896C213.5 26.6896 232.167 45.9229 238 58.0896C261.2 50.4896 272 64.5896 274.5 72.5896C287.7 72.9896 292 81.0896 292.5 85.0896Z" fill="white"/>
</svg>
