<svg width="228" height="216" viewBox="0 0 228 216" fill="none" xmlns="http://www.w3.org/2000/svg">
<rect y="205" width="228" height="11" rx="2" fill="white"/>
<path d="M208.08 204H17.7293C16.7064 204 16.3433 202.646 17.229 202.134L22.4208 199.134C22.5729 199.046 22.7454 199 22.9211 199H202.583C202.75 199 202.915 199.042 203.062 199.122L208.559 202.122C209.468 202.618 209.116 204 208.08 204Z" fill="white"/>
<path d="M63 133L112 0.5L97.5 102L80 139C73.5 137 68.5 136 63 133Z" fill="white"/>
<path d="M54.5 197L76.5 146L68.5 144L61 141L41.5 197H54.5Z" fill="white"/>
<path d="M163 133L114 0.5L128.5 102L146 139C152.5 137 157.5 136 163 133Z" fill="white"/>
<path d="M171.5 197L149.5 146L157.5 144L165 141L184.5 197H171.5Z" fill="white"/>
</svg>
