<svg width="300" height="300" viewBox="0 0 300 300" fill="none" xmlns="http://www.w3.org/2000/svg">
<circle cx="150" cy="150" r="147.5" transform="rotate(90 150 150)" stroke="white" stroke-width="5"/>
<rect x="152" y="297" width="4" height="294" transform="rotate(-180 152 297)" fill="white"/>
<rect x="2.99951" y="152" width="4" height="294" transform="rotate(-90 2.99951 152)" fill="white"/>
<rect x="78.2314" y="278.306" width="4" height="294" transform="rotate(-150 78.2314 278.306)" fill="white"/>
<rect x="23.6936" y="225.232" width="4" height="294" transform="rotate(-120 23.6936 225.232)" fill="white"/>
<rect x="74.7673" y="23.6941" width="4" height="294" transform="rotate(-30 74.7673 23.6941)" fill="white"/>
<rect x="21.6936" y="78.2319" width="4" height="294" transform="rotate(-60 21.6936 78.2319)" fill="white"/>
<circle cx="149.649" cy="149.761" r="65" stroke="white" stroke-width="2"/>
<circle cx="150.149" cy="150.261" r="59.5" stroke="white" stroke-width="2"/>
<path d="M154.649 84.7612L179.149 98.2612" stroke="white" stroke-width="2"/>
<path d="M183.463 94.0932L199.576 116.959" stroke="white" stroke-width="2"/>
<path d="M204.442 114.645L209.117 142.225" stroke="white" stroke-width="2"/>
<path d="M214.181 141.901L206.886 168.906" stroke="white" stroke-width="2" stroke-linecap="round"/>
<path d="M210.472 171.43L194.649 189.761" stroke="white" stroke-width="2" stroke-linecap="round"/>
<path d="M195.016 196.007L172.649 205.287" stroke="white" stroke-width="2" stroke-linecap="round"/>
<path d="M170.845 211.065L146.649 209.761" stroke="white" stroke-width="2" stroke-linecap="round"/>
<path d="M138.809 213.593L118.649 200.761" stroke="white" stroke-width="2" stroke-linecap="round"/>
<path d="M109.863 200.672L99.6487 181.761" stroke="white" stroke-width="2" stroke-linecap="round"/>
<path d="M91.5911 178.213L90.6487 155.761" stroke="white" stroke-width="2" stroke-linecap="round"/>
<path d="M84.6487 150.761L94.6487 128.761" stroke="white" stroke-width="2" stroke-linecap="round"/>
<path d="M89.6487 125.29L107.268 108.75" stroke="white" stroke-width="2" stroke-linecap="round"/>
<path d="M106.649 101.403L129.719 94.2085" stroke="white" stroke-width="2" stroke-linecap="round"/>
<path d="M130.706 87.8829L154.653 91.1265" stroke="white" stroke-width="2" stroke-linecap="round"/>
<circle cx="150" cy="150" r="12" fill="white"/>
<circle cx="150" cy="150" r="17.5" stroke="white" stroke-width="3"/>
</svg>
